<?xml version="1.0" standalone="no"?>
<!DOCTYPE svg PUBLIC "-//W3C//DTD SVG 20010904//EN"
 "http://www.w3.org/TR/2001/REC-SVG-20010904/DTD/svg10.dtd">
<svg version="1.0" xmlns="http://www.w3.org/2000/svg"
 width="256.000000pt" height="256.000000pt" viewBox="0 0 256.000000 256.000000"
 preserveAspectRatio="xMidYMid meet">
<metadata>
Created by potrace 1.14, written by Peter Selinger 2001-2017
</metadata>
<g transform="translate(0.000000,256.000000) scale(0.100000,-0.100000)"
fill="#000000" stroke="none">
<path d="M1140 2554 c-23 -4 -123 -22 -161 -29 -9 -2 -57 -17 -107 -34 -447
-149 -768 -527 -855 -1004 -18 -96 -21 -277 -7 -377 64 -454 362 -841 781
-1014 163 -67 303 -94 494 -94 351 -1 664 132 912 385 160 163 290 400 332
605 6 29 14 64 17 78 4 14 8 97 10 185 2 138 0 175 -20 270 -30 138 -56 214
-119 338 -141 281 -407 517 -695 619 -69 24 -183 54 -237 63 -48 7 -309 14
-345 9z"/>
</g>
</svg>
